<?xml version="1.0" encoding="utf-8"?>
<!-- Generator: Adobe Illustrator 18.1.0, SVG Export Plug-In . SVG Version: 6.00 Build 0)  -->
<!DOCTYPE svg PUBLIC "-//W3C//DTD SVG 1.1//EN" "http://www.w3.org/Graphics/SVG/1.1/DTD/svg11.dtd">

<svg version="1.1" id="icons-mention" viewBox="0 0 32 32" role="presentation" focusable="false" xmlns="http://www.w3.org/2000/svg" xmlns:xlink="http://www.w3.org/1999/xlink">
  <path d="M23.5,16c0-4.1-3.4-7.5-7.5-7.5S8.5,11.9,8.5,16s3.4,7.5,7.5,7.5c1,0,2.1-0.2,3-0.6c0.3-0.1,0.4-0.4,0.3-0.7
            c-0.1-0.3-0.4-0.4-0.7-0.3c-0.8,0.4-1.7,0.5-2.6,0.5c-3.6,0-6.5-2.9-6.5-6.5s2.9-6.5,6.5-6.5s6.5,2.9,6.5,6.5c0,1-0.3,2.1-0.7,3
            c0,0,0,0,0,0c-0.2,0.4-0.7,0.7-1.2,0.7c-0.6,0-1.6-0.3-1.6-1.4c0,0,0,0,0,0V16c0,0,0,0,0,0s0,0,0,0v-2.8c0-0.3-0.2-0.5-0.5-0.5
            S18,12.9,18,13.2v0.6c-0.5-0.5-1.2-0.8-2-0.8c-1.7,0-3,1.3-3,3s1.3,3,3,3c0.8,0,1.5-0.3,2-0.8v0.1c0,0,0,0,0,0
            c0,1.6,1.3,2.4,2.6,2.4c0.8,0,1.6-0.4,2-1.1c0,0,0,0,0-0.1C23.2,18.4,23.5,17.2,23.5,16z M16,18c-1.1,0-2-0.9-2-2s0.9-2,2-2
            c1.1,0,2,0.9,2,2v0C18,17.1,17.1,18,16,18z">
  </path>
</svg>