<?xml version="1.0" encoding="utf-8"?>
<!-- Generator: Adobe Illustrator 18.1.0, SVG Export Plug-In . SVG Version: 6.00 Build 0)  -->
<!DOCTYPE svg PUBLIC "-//W3C//DTD SVG 1.1//EN" "http://www.w3.org/Graphics/SVG/1.1/DTD/svg11.dtd">

<svg version="1.1" id="icons-reactions-like" viewBox="0 0 32 32" role="presentation" focusable="false" xmlns="http://www.w3.org/2000/svg" xmlns:xlink="http://www.w3.org/1999/xlink">
<path d="M22.462,15.172c-0.183-0.647-0.929-1.755-2.568-1.808c-0.182-0.006-0.361-0.008-0.538-0.008
            c-0.155,0-0.308,0.002-0.463,0.003c-0.151,0.001-0.302,0.003-0.457,0.003c-0.014,0-0.028,0-0.042,0
            c0.379-0.913,0.601-2.115,0.571-2.644C18.847,8.714,17.883,8,17.019,8c-0.888,0-1.071,0.736-1.402,2.072
            c-0.069,0.278-0.171,0.691-0.222,0.833c-0.203,0.33-1.415,2.038-3.058,4.307c-0.277,0.382-0.357,0.88-0.214,1.331l1.747,5.51
            c0.191,0.604,0.745,1.024,1.378,1.046l2.233,0.077c0.011,0,0.023,0.001,0.034,0.001c0.298,0,2.938-0.053,3.721-1.88
            c0.052-0.123,0.06-0.141,1.242-5.641C22.512,15.495,22.507,15.329,22.462,15.172z M20.317,20.902
            c-0.545,1.274-2.801,1.274-2.801,1.274l-2.233-0.077c-0.212-0.007-0.396-0.147-0.459-0.349l-1.747-5.51
            c-0.048-0.151-0.022-0.314,0.071-0.443c0.618-0.854,2.986-4.131,3.144-4.447C16.474,10.987,16.837,9,17.019,9
            c0.575,0,0.892,0.831,0.948,1.776c0.025,0.441-0.256,1.847-0.682,2.587c-0.208,0.362-0.805,0.999,1.151,0.999
            c0.314,0,0.615-0.006,0.92-0.006c0.167,0,0.334,0.002,0.506,0.007c1.345,0.044,1.638,1.081,1.638,1.081S20.338,20.851,20.317,20.902
            z"></path>
  <path d="M10.605,15.921c-0.083-0.264-0.367-0.411-0.628-0.324c-0.263,0.084-0.408,0.365-0.324,0.628l2.371,7.427
            C12.091,23.865,12.288,24,12.5,24c0.05,0,0.102-0.007,0.152-0.024c0.263-0.084,0.408-0.365,0.324-0.628L10.605,15.921z"></path>
</svg>