<?xml version="1.0" encoding="utf-8"?>
<!-- Generator: Adobe Illustrator 18.1.0, SVG Export Plug-In . SVG Version: 6.00 Build 0)  -->
<!DOCTYPE svg PUBLIC "-//W3C//DTD SVG 1.1//EN" "http://www.w3.org/Graphics/SVG/1.1/DTD/svg11.dtd">
<svg version="1.1" id="icons-reply" viewBox="0 0 32 32" role="presentation" focusable="false" xmlns="http://www.w3.org/2000/svg" xmlns:xlink="http://www.w3.org/1999/xlink">
  <path d="M22.8438,11.6484c0.0986,0.0991,0.1484,0.2163,0.1484,0.3516c0,0.896-0.2295,1.7319-0.6875,2.5078
            c-0.2188,0.3701-0.4824,0.7085-0.7891,1.0156c-0.3076,0.3076-0.6465,0.5703-1.0156,0.7891C19.7236,16.7715,18.8877,17,17.9922,17
            h-7.2969l3.1484,3.1484c0.0986,0.0996,0.1484,0.2168,0.1484,0.3516c0,0.1357-0.0498,0.2529-0.1484,0.3516
            C13.7446,20.9512,13.6274,21,13.4922,21c-0.1357,0-0.2529-0.0488-0.3516-0.1484l-4-4C9.0415,16.7529,8.9922,16.6357,8.9922,16.5
            c0-0.1348,0.0493-0.252,0.1484-0.3516l4-4C13.2393,12.0498,13.3564,12,13.4922,12c0.1353,0,0.2524,0.0498,0.3516,0.1484
            c0.0986,0.0991,0.1484,0.2163,0.1484,0.3516c0,0.1357-0.0498,0.2529-0.1484,0.3516L10.7031,16h7.2891
            c0.7129,0,1.3828-0.1846,2.0078-0.5547c0.6035-0.3486,1.0859-0.8281,1.4453-1.4375c0.3643-0.6299,0.5469-1.2993,0.5469-2.0078
            c0-0.1353,0.0488-0.2524,0.1484-0.3516c0.0986-0.0986,0.2158-0.1484,0.3516-0.1484C22.627,11.5,22.7441,11.5498,22.8438,11.6484z">
  </path>
</svg>